<svg xmlns="http://www.w3.org/2000/svg" viewBox="0 0 400 220" role="img" aria-label="Artículo tributario">
  <defs>
    <linearGradient id="g1" x1="0" y1="0" x2="1" y2="1">
      <stop offset="0" stop-color="#082b66"/>
      <stop offset="1" stop-color="#1f5eff"/>
    </linearGradient>
  </defs>
  <rect width="400" height="220" fill="url(#g1)"/>
  <circle cx="352" cy="30" r="90" fill="#ffffff" opacity="0.06"/>
  <circle cx="30" cy="200" r="70" fill="#6fa8ff" opacity="0.15"/>
  <!-- calculadora -->
  <g transform="translate(150 50)">
    <rect width="100" height="130" rx="12" fill="#ffffff"/>
    <rect x="14" y="14" width="72" height="26" rx="6" fill="#dfe9fb"/>
    <text x="80" y="33" text-anchor="end" font-family="Poppins, Arial" font-size="15" font-weight="700" fill="#082b66">S/</text>
    <g fill="#1f5eff">
      <circle cx="26" cy="62" r="8"/><circle cx="50" cy="62" r="8"/><circle cx="74" cy="62" r="8"/>
      <circle cx="26" cy="86" r="8"/><circle cx="50" cy="86" r="8"/><circle cx="74" cy="86" r="8"/>
      <circle cx="26" cy="110" r="8"/><circle cx="50" cy="110" r="8"/>
    </g>
    <circle cx="74" cy="110" r="8" fill="#25d366"/>
  </g>
  <!-- monedas -->
  <g fill="#ffc531" stroke="#e2a800" stroke-width="2">
    <ellipse cx="105" cy="160" rx="22" ry="9"/>
    <ellipse cx="105" cy="150" rx="22" ry="9"/>
    <ellipse cx="105" cy="140" rx="22" ry="9"/>
  </g>
</svg>
