<svg xmlns="http://www.w3.org/2000/svg" viewBox="0 0 400 220" role="img" aria-label="Artículo laboral">
  <defs>
    <linearGradient id="g3" x1="0" y1="0" x2="1" y2="1">
      <stop offset="0" stop-color="#1f5eff"/>
      <stop offset="1" stop-color="#082b66"/>
    </linearGradient>
  </defs>
  <rect width="400" height="220" fill="url(#g3)"/>
  <circle cx="370" cy="40" r="80" fill="#ffffff" opacity="0.07"/>
  <!-- documento planilla -->
  <g transform="translate(90 40)">
    <rect width="110" height="140" rx="10" fill="#ffffff"/>
    <rect x="16" y="18" width="78" height="10" rx="5" fill="#082b66"/>
    <rect x="16" y="40" width="60" height="8" rx="4" fill="#c7d8f7"/>
    <rect x="16" y="58" width="78" height="8" rx="4" fill="#c7d8f7"/>
    <rect x="16" y="76" width="50" height="8" rx="4" fill="#c7d8f7"/>
    <rect x="16" y="100" width="78" height="22" rx="6" fill="#25d366" opacity="0.9"/>
    <path d="M28 111l5 5 9-10" fill="none" stroke="#ffffff" stroke-width="3" stroke-linecap="round" stroke-linejoin="round"/>
  </g>
  <!-- personas -->
  <g transform="translate(225 78)" fill="#ffffff">
    <circle cx="30" cy="20" r="16"/>
    <path d="M2 78c3-22 15-32 28-32s25 10 28 32z"/>
    <g opacity="0.75">
      <circle cx="72" cy="26" r="13"/>
      <path d="M50 78c2-18 12-26 22-26s20 8 22 26z"/>
    </g>
  </g>
</svg>
