<svg xmlns="http://www.w3.org/2000/svg" viewBox="0 0 520 620" role="img" aria-label="Asesor contable">
  <defs>
    <linearGradient id="bg" x1="0" y1="0" x2="1" y2="1">
      <stop offset="0" stop-color="#eaf1ff"/>
      <stop offset="1" stop-color="#cddcfa"/>
    </linearGradient>
    <linearGradient id="shirt" x1="0" y1="0" x2="0" y2="1">
      <stop offset="0" stop-color="#ffffff"/>
      <stop offset="1" stop-color="#e8edf6"/>
    </linearGradient>
  </defs>
  <rect width="520" height="620" rx="24" fill="url(#bg)"/>
  <!-- detalles de oficina -->
  <circle cx="452" cy="86" r="120" fill="#ffffff" opacity="0.35"/>
  <circle cx="60" cy="540" r="150" fill="#1f5eff" opacity="0.06"/>
  <g opacity="0.25" stroke="#082b66" stroke-width="3" fill="none" stroke-linecap="round">
    <path d="M62 120h80M62 140h56"/>
    <rect x="380" y="470" width="90" height="64" rx="8"/>
    <path d="M398 516v-18M420 516v-30M442 516v-24"/>
  </g>
  <!-- persona -->
  <g>
    <path d="M260 178c-38 0-64 28-64 68 0 28 12 52 30 64 6 4 6 12 1 17-40 14-96 44-108 96-6 26 6 47 30 47h222c24 0 36-21 30-47-12-52-68-82-108-96-5-5-5-13 1-17 18-12 30-36 30-64 0-40-26-68-64-68z" fill="#9db6e4"/>
    <!-- camisa -->
    <path d="M150 470c14-48 66-76 104-89 2 25 46 25 48 0 38 13 90 41 104 89 5 18-2 30-18 30H168c-16 0-23-12-18-30z" fill="url(#shirt)" transform="translate(2 -30)"/>
  </g>
  <!-- marca -->
  <g transform="translate(196 556)">
    <rect width="128" height="34" rx="17" fill="#082b66"/>
    <text x="64" y="22" text-anchor="middle" font-family="Poppins, Arial, sans-serif" font-size="13" font-weight="600" fill="#ffffff">Asesoría Contable</text>
  </g>
</svg>
